# xmcd
#
# Track frame offsets: 
#        150
#        12539
#        24461
#        37191
#        50275
#        75655
#        88371
#        100266
#        113907
#        127053
#        141080
#        153314
#        165764
#        177321
#        189844
#        201977
#        213688
#        226211
#        239461
#        249372
#        259392
#
# Disc length: 3711 seconds
#
# Revision: 0
# Processed by: cddbd v1.5.2PL0 Copyright (c) Steve Scherf et al.
# Submitted via: ExactAudioCopy v0.99pb5
#
DISCID=240e7d15
DTITLE=James Brown  - The Singles Volume Five_ 1967-1969 [CD2]
DYEAR=1900
DGENRE=
TTITLE0=Say It Loud - I'm Black And I'm Proud (Part 1)
TTITLE1=Say It Loud - I'm Black And I'm Proud (Part 2)
TTITLE2=Maybe Good, Maybe Bad (Part 1)
TTITLE3=Maybe Good, Maybe Bad (Part 2)
TTITLE4=Goodbye My Love
TTITLE5=Shades Of Brown
TTITLE6=Shades Of Brown (Pt. 2)
TTITLE7=Santa Claus Goes Straight To The Ghetto
TTITLE8=You Know It
TTITLE9=Tit For Tat (Ain't No Taking Back)
TTITLE10=Believers Shall Enjoy (Non Believers Shall Suffer)
TTITLE11=Let's Unite The Whole World At Christmas
TTITLE12=In The Middle (Part 1)
TTITLE13=In The Middle (Part 2)
TTITLE14=Little Green Apples
TTITLE15=Come On In The House
TTITLE16=Give It Up Or Turnit A Loose
TTITLE17=I'll Lose My Mind
TTITLE18=Soul Pride (Part 1)
TTITLE19=Soul Pride (Part 2)
TTITLE20=You Got To Have A Job (If You Don't Work-You Can't Eat)
EXTD=
EXTT0=
EXTT1=
EXTT2=
EXTT3=
EXTT4=
EXTT5=
EXTT6=
EXTT7=
EXTT8=
EXTT9=
EXTT10=
EXTT11=
EXTT12=
EXTT13=
EXTT14=
EXTT15=
EXTT16=
EXTT17=
EXTT18=
EXTT19=
EXTT20=
PLAYORDER=
